<svg width="24" height="24" viewBox="0 0 24 24" fill="none" xmlns="http://www.w3.org/2000/svg">
<g clip-path="url(#clip0_380_20226)">
<path d="M20 2.00012C20.552 2.00012 21 2.44812 21 3.00012V6.75712L12.001 15.7571L11.995 19.9951L16.241 20.0011L21 15.2421V21.0001C21 21.5521 20.552 22.0001 20 22.0001H4C3.448 22.0001 3 21.5521 3 21.0001V3.00012C3 2.44812 3.448 2.00012 4 2.00012H20ZM21.778 8.80812L23.192 10.2221L15.414 18.0001L13.998 17.9981L14 16.5861L21.778 8.80812ZM12 12.0001H7V14.0001H12V12.0001ZM15 8.00012H7V10.0001H15V8.00012Z" fill="#A2AAB7"/>
</g>
<defs>
<clipPath id="clip0_380_20226">
<rect width="24" height="24" fill="white"/>
</clipPath>
</defs>
</svg>
