
<svg width="22" height="20" viewBox="0 0 22 20" fill="none" xmlns="http://www.w3.org/2000/svg">
<path d="M1 8.00011H4V20.0001H1C0.734784 20.0001 0.48043 19.8948 0.292893 19.7072C0.105357 19.5197 0 19.2653 0 19.0001V9.00011C0 8.73489 0.105357 8.48054 0.292893 8.293C0.48043 8.10547 0.734784 8.00011 1 8.00011ZM6.293 6.70711L12.693 0.307111C12.7781 0.221805 12.8911 0.170078 13.0112 0.161443C13.1314 0.152808 13.2506 0.187845 13.347 0.260111L14.2 0.900111C14.4369 1.07796 14.6158 1.32196 14.7143 1.60137C14.8127 1.88077 14.8262 2.18306 14.753 2.47011L13.6 7.00011H20C20.5304 7.00011 21.0391 7.21083 21.4142 7.5859C21.7893 7.96097 22 8.46968 22 9.00011V11.1041C22.0003 11.3655 21.9493 11.6244 21.85 11.8661L18.755 19.3811C18.6795 19.5643 18.5513 19.721 18.3866 19.8312C18.2219 19.9414 18.0282 20.0002 17.83 20.0001H7C6.73478 20.0001 6.48043 19.8948 6.29289 19.7072C6.10536 19.5197 6 19.2653 6 19.0001V7.41411C6.00006 7.14892 6.10545 6.8946 6.293 6.70711Z" fill="#43A047"/>
</svg>
