<svg width="140" height="140" viewBox="0 0 140 140" fill="none" xmlns="http://www.w3.org/2000/svg">
<rect width="140" height="140" fill="#F2F4F5"/>
<g clip-path="url(#clip0_7083_21985)">
<path d="M77.5 72.5V75H80V76.6667H77.5V79.1667H75.8333V76.6667H73.3333V75H75.8333V72.5H77.5ZM77.5067 62.5C77.9633 62.5 78.3333 62.8708 78.3333 63.3275V71.1183C77.798 70.9292 77.2344 70.8329 76.6667 70.8333V64.1667H63.3333L63.3342 75.8333L71.0775 68.0892C71.2208 67.9454 71.4117 67.8589 71.6142 67.8461C71.8168 67.8332 72.0171 67.8947 72.1775 68.0192L72.255 68.09L75.21 71.0483C74.5639 71.2452 73.9643 71.5709 73.4474 72.0058C72.9306 72.4407 72.5072 72.9757 72.2027 73.5787C71.8982 74.1816 71.719 74.84 71.6759 75.5141C71.6327 76.1881 71.7265 76.864 71.9517 77.5008L62.4933 77.5C62.274 77.4998 62.0637 77.4125 61.9087 77.2573C61.7537 77.1022 61.6667 76.8918 61.6667 76.6725V63.3275C61.6682 63.1086 61.7557 62.8992 61.9104 62.7443C62.0651 62.5895 62.2745 62.5017 62.4933 62.5H77.5067ZM66.6667 65.8333C67.1087 65.8333 67.5326 66.0089 67.8452 66.3215C68.1577 66.634 68.3333 67.058 68.3333 67.5C68.3333 67.942 68.1577 68.366 67.8452 68.6785C67.5326 68.9911 67.1087 69.1667 66.6667 69.1667C66.2246 69.1667 65.8007 68.9911 65.4881 68.6785C65.1756 68.366 65 67.942 65 67.5C65 67.058 65.1756 66.634 65.4881 66.3215C65.8007 66.0089 66.2246 65.8333 66.6667 65.8333V65.8333Z" fill="#8A94A5"/>
</g>
<defs>
<clipPath id="clip0_7083_21985">
<rect width="20" height="20" fill="white" transform="translate(60 60)"/>
</clipPath>
</defs>
</svg>
