<svg width="121" height="128" viewBox="0 0 121 128" fill="none" xmlns="http://www.w3.org/2000/svg">
<path d="M66.2319 103.087C88.9986 103.087 107.456 84.63 107.456 61.7819C107.456 38.9339 88.9173 20.4766 66.2319 20.4766C43.4651 20.4766 25.0078 38.9339 25.0078 61.7819C25.0078 84.63 43.4651 103.087 66.2319 103.087Z" fill="#EAEEF9"/>
<path d="M104.772 34.7057C106.613 34.7057 108.106 33.2132 108.106 31.372C108.106 29.5309 106.613 28.0383 104.772 28.0383C102.931 28.0383 101.438 29.5309 101.438 31.372C101.438 33.2132 102.931 34.7057 104.772 34.7057Z" fill="#EAEEF9"/>
<path d="M109.652 21.6962C110.909 21.6962 111.928 20.6769 111.928 19.4195C111.928 18.1621 110.909 17.1428 109.652 17.1428C108.394 17.1428 107.375 18.1621 107.375 19.4195C107.375 20.6769 108.394 21.6962 109.652 21.6962Z" fill="#EAEEF9"/>
<path d="M27.2034 34.6244C28.4608 34.6244 29.4801 33.6051 29.4801 32.3477C29.4801 31.0903 28.4608 30.071 27.2034 30.071C25.9461 30.071 24.9268 31.0903 24.9268 32.3477C24.9268 33.6051 25.9461 34.6244 27.2034 34.6244Z" fill="#EAEEF9"/>
<path d="M13.2994 78.5317C15.6345 78.5317 17.5275 76.6387 17.5275 74.3036C17.5275 71.9684 15.6345 70.0754 13.2994 70.0754C10.9643 70.0754 9.07129 71.9684 9.07129 74.3036C9.07129 76.6387 10.9643 78.5317 13.2994 78.5317Z" fill="#EAEEF9"/>
<g filter="url(#filter0_d_901_28985)">
<path d="M94.284 41.1291L94.9345 93.4926C94.9345 95.2814 93.4709 96.6637 91.6821 96.6637H40.6196C38.8308 96.6637 37.3672 95.2001 37.3672 93.4926V26.1682C37.3672 24.3793 38.8308 22.9971 40.6196 22.9971H77.6155L94.284 41.1291Z" fill="url(#paint0_linear_901_28985)"/>
</g>
<path d="M62.2479 86.1748H60.3778C59.9712 86.1748 59.646 85.7683 59.646 85.2804C59.646 84.7925 59.9712 84.386 60.3778 84.386H62.2479C62.6545 84.386 62.9797 84.7925 62.9797 85.2804C62.9797 85.8496 62.6545 86.1748 62.2479 86.1748Z" fill="#CED7E2"/>
<path d="M56.5565 86.1748H45.661C45.2544 86.1748 44.9292 85.7683 44.9292 85.2804C44.9292 84.7925 45.2544 84.386 45.661 84.386H56.5565C56.963 84.386 57.2883 84.7925 57.2883 85.2804C57.2883 85.8496 56.963 86.1748 56.5565 86.1748Z" fill="#D5DDEA"/>
<path d="M70.4605 33.9739H45.9862C45.4171 33.9739 44.9292 33.4861 44.9292 32.9169C44.9292 32.3477 45.4171 31.8599 45.9862 31.8599H70.4605C71.0296 31.8599 71.5175 32.3477 71.5175 32.9169C71.5175 33.4861 71.0296 33.9739 70.4605 33.9739Z" fill="#D5DDEA"/>
<path d="M55.4182 39.8282H45.9862C45.4171 39.8282 44.9292 39.3403 44.9292 38.7711C44.9292 38.202 45.4171 37.7141 45.9862 37.7141H55.3368C55.906 37.7141 56.3939 38.202 56.3939 38.7711C56.3939 39.3403 55.906 39.8282 55.4182 39.8282Z" fill="#D5DDEA"/>
<path d="M77.6147 22.9971V37.4702C77.6147 39.5029 79.4036 41.1291 81.4363 41.1291H94.2832" fill="#D5DDEA"/>
<path d="M98.1862 97.8834C97.3731 97.8834 96.56 97.5581 95.9095 96.8263L82.3308 83.2476L81.8429 83.5728C77.4522 86.8252 72.3297 88.5327 67.1259 88.5327C60.865 88.5327 54.6042 86.0121 49.9695 81.6214C45.0909 76.9868 42.4077 70.7259 42.4077 63.8959C42.4077 50.3172 53.4658 39.259 67.0446 39.259C76.3139 39.259 84.4449 44.1376 88.8356 52.4312C93.145 60.6435 92.5758 70.238 87.2907 77.9625L86.9655 78.4503L100.625 92.1104C102.008 93.4926 101.683 94.8749 101.439 95.6067C100.788 96.9076 99.4872 97.8834 98.1862 97.8834ZM67.0446 46.0077C57.1248 46.0077 49.1564 54.0574 49.1564 63.8959C49.1564 75.1166 58.3444 81.8653 67.2885 81.8653C72.7362 81.8653 77.6961 79.426 81.1925 75.0353C85.5019 69.6689 86.2337 62.4323 83.2252 56.1715C80.1354 49.9106 73.9559 46.0077 67.0446 46.0077Z" fill="#989FB0"/>
<path d="M59.3196 66.8233C60.3766 66.8233 61.271 65.9289 61.271 64.8718C61.271 63.8148 60.3766 62.9204 59.3196 62.9204C58.2626 62.9204 57.3682 63.8148 57.3682 64.8718C57.3682 65.9289 58.2626 66.8233 59.3196 66.8233Z" fill="#989FB0"/>
<path d="M74.2796 66.8233C75.3366 66.8233 76.231 65.9289 76.231 64.8718C76.231 63.8148 75.3366 62.9204 74.2796 62.9204C73.2225 62.9204 72.3281 63.8148 72.3281 64.8718C72.3281 66.0102 73.2225 66.8233 74.2796 66.8233Z" fill="#989FB0"/>
<path d="M59.2429 58.4156L54.9502 60.7334L55.5297 61.8066L59.8223 59.4888L59.2429 58.4156Z" fill="#989FB0"/>
<path d="M74.0149 58.3847L73.4355 59.458L77.7287 61.7753L78.308 60.702L74.0149 58.3847Z" fill="#989FB0"/>
<path d="M66.7996 71.3764C68.057 71.3764 69.0763 70.612 69.0763 69.6689C69.0763 68.7259 68.057 67.9614 66.7996 67.9614C65.5423 67.9614 64.5229 68.7259 64.5229 69.6689C64.5229 70.612 65.5423 71.3764 66.7996 71.3764Z" fill="#989FB0"/>
<defs>
<filter id="filter0_d_901_28985" x="16.4977" y="12.5623" width="99.3064" height="115.406" filterUnits="userSpaceOnUse" color-interpolation-filters="sRGB">
<feFlood flood-opacity="0" result="BackgroundImageFix"/>
<feColorMatrix in="SourceAlpha" type="matrix" values="0 0 0 0 0 0 0 0 0 0 0 0 0 0 0 0 0 0 127 0" result="hardAlpha"/>
<feOffset dy="10.4348"/>
<feGaussianBlur stdDeviation="10.4348"/>
<feColorMatrix type="matrix" values="0 0 0 0 0.397708 0 0 0 0 0.47749 0 0 0 0 0.575 0 0 0 0.27 0"/>
<feBlend mode="normal" in2="BackgroundImageFix" result="effect1_dropShadow_901_28985"/>
<feBlend mode="normal" in="SourceGraphic" in2="effect1_dropShadow_901_28985" result="shape"/>
</filter>
<linearGradient id="paint0_linear_901_28985" x1="66.1321" y1="21.2931" x2="66.1321" y2="97.4579" gradientUnits="userSpaceOnUse">
<stop stop-color="#FDFEFF"/>
<stop offset="0.9964" stop-color="#ECF0F5"/>
</linearGradient>
</defs>
</svg>
