<svg width="104" height="39" viewBox="0 0 104 39" fill="none" xmlns="http://www.w3.org/2000/svg">
<path fill-rule="evenodd" clip-rule="evenodd" d="M2.66708 10.6459L9.40632 3.89059V0L0.726415 8.70061C0.190397 9.23742 0.190397 10.1084 0.726415 10.6459C1.27997 11.2001 2.14651 11.169 2.66708 10.6459ZM23.029 11.0499C24.2821 11.0499 25.2997 10.1047 25.2997 8.93793C25.2997 7.7704 24.2821 6.82495 23.029 6.82495C21.7758 6.82495 20.7587 7.7704 20.7587 8.93793C20.7587 10.1047 21.7758 11.0499 23.029 11.0499ZM49.1258 34.5093L49.807 34.1004C49.807 34.1004 49.3742 33.15 48.3042 33.15C47.2209 33.15 46.6311 33.9058 46.6311 34.644C46.6311 35.5983 47.4339 35.934 48.2819 36.2886L48.3107 36.3006C48.6089 36.425 49.1046 36.6859 49.1046 37.2618C49.1046 37.6824 48.8152 38.2041 48.1923 38.2041C47.2596 38.2041 47.2331 37.1517 47.2331 37.1517L46.3827 37.343C46.3827 37.343 46.5103 39 48.1594 39C49.0554 39 49.9506 38.338 49.9506 37.2044C49.9506 36.1757 49.2213 35.8102 48.6465 35.5453C48.5346 35.4937 48.4221 35.4478 48.3137 35.4035C47.8655 35.2203 47.4851 35.0648 47.4851 34.6519C47.4851 34.3688 47.7205 33.9538 48.2972 33.9538C48.8686 33.9538 49.1258 34.5093 49.1258 34.5093ZM100.698 34.5093L101.379 34.1004C101.379 34.1004 100.946 33.15 99.8771 33.15C98.794 33.15 98.2043 33.9058 98.2043 34.644C98.2043 35.5985 99.0068 35.9342 99.855 36.2889L99.8831 36.3006C100.181 36.425 100.677 36.6859 100.677 37.2618C100.677 37.6824 100.387 38.2041 99.7649 38.2041C98.8319 38.2041 98.8059 37.1517 98.8059 37.1517L97.9551 37.343C97.9551 37.343 98.0823 39 99.7322 39C100.628 39 101.523 38.338 101.523 37.2044C101.523 36.1757 100.794 35.8102 100.219 35.5453C100.107 35.4938 99.9946 35.4479 99.8863 35.4036C99.4381 35.2204 99.0578 35.065 99.0578 34.6519C99.0578 34.3688 99.2927 33.9538 99.8696 33.9538C100.44 33.9538 100.698 34.5093 100.698 34.5093ZM55.4646 34.259H53.3437V35.5853H55.4029V36.3714H53.3437V38.2165H55.4646V39H52.5454V33.475H55.4646V34.259ZM62.9248 34.5705V33.5629C62.9248 33.5629 62.2931 33.15 61.426 33.15C59.4966 33.15 58.3838 34.6966 58.3838 36.1056C58.3838 37.5139 59.4464 39 61.3577 39C62.2495 39 62.9248 38.5885 62.9248 38.5885V37.563C62.9248 37.563 62.1998 38.2043 61.3707 38.2043C59.9485 38.2043 59.2584 37.0623 59.2584 36.0973C59.2584 35.1319 59.9337 33.9538 61.3666 33.9538C62.2569 33.9538 62.9248 34.5705 62.9248 34.5705ZM73.8103 36.0125H74.0736C74.8602 36.0125 75.254 35.709 75.254 35.107C75.254 34.5401 74.8708 34.2589 74.1066 34.2589H73.8103V36.0125ZM74.8435 36.6469L76.5475 39H75.5318L73.9591 36.7385H73.8102V39H72.9796V33.475H74.0246C75.3991 33.475 76.0625 34.1334 76.0625 35.0949C76.0625 36.1903 75.2098 36.5669 74.8435 36.6469ZM80.1155 39H79.1425V33.475H80.1155V39ZM84.4101 34.259V39H83.6076V34.259H82.3859V33.475H85.6295V34.259H84.4101ZM89.1974 39H88.2243V33.475H89.1974V39ZM95.3601 34.259H93.2393V35.5853H95.2976V36.3714H93.2393V38.2165H95.3601V39H92.4409V33.475H95.3601V34.259ZM68.8764 36.743V33.475H69.7362V36.9684C69.7362 38.417 68.5411 39 67.628 39C66.7139 39 65.5195 38.417 65.5195 36.9684V33.475H66.3797V36.743C66.3797 38.079 67.1946 38.2341 67.628 38.2341C68.0611 38.2341 68.8764 38.079 68.8764 36.743ZM25.11 25.5792C25.11 26.2835 25.6148 26.8605 26.6196 26.8605H26.9214V27.625H19.7856V26.8605H20.0869C21.0931 26.8605 21.5977 26.2835 21.5977 25.5792V14.3958C21.5977 13.6915 21.0931 13.1126 20.0869 13.1126H19.7856V12.35H25.11V25.5792ZM43.161 26.857C42.1522 26.857 41.6468 26.2776 41.6468 25.5702L41.6479 15.9752C41.6479 14.6884 41.303 13.7466 40.5407 13.1167C39.1044 11.9341 37.0277 11.794 35.2269 12.3069C34.5887 12.4913 33.9661 12.8443 33.5542 13.2795V12.2829H28.2188V13.0488H28.5211C29.5298 13.0488 30.0353 13.6303 30.0353 14.3376V25.5702C30.0353 26.2776 29.5298 26.857 28.5211 26.857H28.2188V27.6249H35.3705V26.857H35.0684C34.0602 26.857 33.5542 26.2776 33.5542 25.5702V14.8468C33.5542 13.965 34.4338 13.2112 35.3768 13.0667C36.4781 12.8968 37.4338 13.3733 37.8555 14.2958C38.0748 14.7767 38.1272 15.2779 38.1272 15.7853V25.5702C38.1272 26.2776 37.6223 26.857 36.6127 26.857H36.3111V27.6249H43.4634V26.857H43.161ZM47.6058 18.7253H52.2176C52.5687 18.7253 52.6185 18.5173 52.6217 18.4204C52.4031 13.5496 51.4154 12.6872 50.2194 12.6872C48.7054 12.6872 47.796 15.26 47.6058 18.7253ZM44.1122 20.0051C44.1122 15.571 46.5478 12.025 50.2105 12.025C54.2892 12.025 56.0673 15.2839 56.1133 19.416C56.117 19.7391 55.7838 19.7227 55.7838 19.7227H47.5213C47.4218 21.2981 47.2407 27.0736 50.6126 27.0736C53.0606 27.0736 53.931 25.2925 54.4651 23.1356H55.8114C54.9194 26.0132 53.3126 27.9499 50.3518 27.9499C46.8502 27.9499 44.1122 24.438 44.1122 20.0051ZM9.21126 7.54896H11.852C16.4306 7.54896 18.8125 10.1643 18.8125 13.5767C18.8125 16.9874 16.4306 19.6053 11.852 19.6053H9.21126V25.5718C9.21126 26.2799 9.71476 26.8567 10.7172 26.8567H11.2511V27.625H3.66416V26.8567H4.19297C5.19688 26.8567 5.70382 26.2799 5.70382 25.5718V20.2894L2.37592 23.5933C1.84793 24.1183 0.969032 24.1501 0.407745 23.5933C-0.135915 23.0533 -0.135915 22.1784 0.407745 21.6389L9.21126 12.898V18.539H11.2263C14.3105 18.539 15.3678 16.4252 15.3678 13.5767C15.3678 10.7271 14.3105 8.61364 11.2263 8.61364H9.21126V10.4085L2.37592 17.1953C1.84793 17.7203 0.969032 17.7521 0.407745 17.1953C-0.135915 16.6555 -0.135915 15.7806 0.407745 15.2409L9.21126 6.5V7.54896ZM85.9509 18.7253H81.3392C81.529 15.26 82.4371 12.6872 83.9512 12.6872C85.1486 12.6872 86.1376 13.5496 86.3548 18.4204C86.3506 18.5173 86.3013 18.7253 85.9509 18.7253ZM83.9427 12.025C80.2803 12.025 77.845 15.571 77.845 20.0051C77.845 24.438 80.5822 27.9499 84.085 27.9499C87.0457 27.9499 88.6519 26.0132 89.544 23.1356H88.1973C87.6641 25.2925 86.7942 27.0736 84.3457 27.0736C80.9737 27.0736 81.1546 21.2981 81.2542 19.7227H89.5177C89.5177 19.7227 89.8497 19.7391 89.846 19.416C89.8012 15.2839 88.0225 12.025 83.9427 12.025ZM94.6375 18.7253H99.2492C99.6007 18.7253 99.6492 18.5173 99.6535 18.4204C99.4343 13.5496 98.4475 12.6872 97.2511 12.6872C95.7373 12.6872 94.8274 15.26 94.6375 18.7253ZM91.1436 20.0051C91.1436 15.571 93.5787 12.025 97.242 12.025C101.32 12.025 103.099 15.2839 103.145 19.416C103.148 19.7391 102.816 19.7227 102.816 19.7227H94.5524C94.4531 21.2981 94.2714 27.0736 97.6438 27.0736C100.092 27.0736 100.963 25.2925 101.496 23.1356H102.842C101.952 26.0132 100.343 27.9499 97.3841 27.9499C93.8804 27.9499 91.1436 24.438 91.1436 20.0051ZM75.7915 12.025C73.7554 12.025 72.6015 14.1903 72.4772 14.4234L72.4689 14.439V12.2816H67.1414V13.0476H67.4432C68.4502 13.0476 68.9553 13.6291 68.9553 14.3364V25.57C68.9553 26.2773 68.4502 26.857 67.4432 26.857H67.1414V27.6249H74.2818V26.857H73.9802C72.9736 26.857 72.4689 26.2773 72.4689 25.57V18.3038C72.4871 16.4598 72.8238 14.4992 74.0327 14.0421C74.5776 13.8353 74.9049 14.1117 75.2506 14.4038C75.5357 14.6446 75.8333 14.8961 76.276 14.8961C77.0681 14.8961 77.5546 14.4191 77.7608 13.9093C78.0534 13.1858 77.6274 12.025 75.7915 12.025ZM63.907 26.6363C64.8649 26.6363 65.4074 25.6487 65.4074 25.6487C65.4074 25.6487 65.6614 25.8313 65.8439 25.9664C65.8249 25.9953 65.8051 26.0265 65.7841 26.0595C65.4422 26.5963 64.7872 27.6249 62.5288 27.6249C59.4777 27.6249 58.8786 25.869 58.8786 23.9843L58.8763 12.9925H57.0863V12.2346C59.143 12.2346 60.8461 10.7381 61.179 8.7756C61.1794 8.7756 61.1803 8.77496 61.1803 8.77496H62.3227V12.2346H65.5488V12.9941H62.3227V24.5261C62.3227 25.3276 62.4715 26.6363 63.907 26.6363Z" fill="#124A72"/>
</svg>
