<svg width="120" height="120" viewBox="0 0 120 120" fill="none" xmlns="http://www.w3.org/2000/svg">
<path d="M84.2108 50.654C85.4527 50.654 86.4594 49.6463 86.4594 48.4033C86.4594 47.1603 85.4527 46.1527 84.2108 46.1527C82.9689 46.1527 81.9622 47.1603 81.9622 48.4033C81.9622 49.6463 82.9689 50.654 84.2108 50.654Z" fill="#EAEEF9"/>
<path d="M24.4794 62.825C25.2964 62.825 25.9587 62.1621 25.9587 61.3443C25.9587 60.5266 25.2964 59.8636 24.4794 59.8636C23.6623 59.8636 23 60.5266 23 61.3443C23 62.1621 23.6623 62.825 24.4794 62.825Z" fill="#EAEEF9"/>
<path d="M31.2797 89.445C32.0967 89.445 32.759 88.7821 32.759 87.9643C32.759 87.1466 32.0967 86.4836 31.2797 86.4836C30.4626 86.4836 29.8003 87.1466 29.8003 87.9643C29.8003 88.7821 30.4626 89.445 31.2797 89.445Z" fill="#EAEEF9"/>
<path d="M39.1877 89.445L59.9473 82.9402V56.2702L39.1877 62.725V89.445Z" fill="#B7BFCD"/>
<path opacity="0.4" d="M80.7069 89.445L59.9473 82.9402V56.2702L80.7069 62.725V89.445Z" fill="#6D7C9A"/>
<g opacity="0.13">
<path d="M39.1877 89.445L59.9473 82.9402V56.2702L39.1877 62.725V89.445Z" fill="url(#paint0_linear_3715_26060)"/>
<path d="M80.7069 89.445L59.9473 82.9402V56.2702L80.7069 62.725V89.445Z" fill="url(#paint1_linear_3715_26060)"/>
</g>
<path d="M59.9473 96L39.1877 89.4951V62.8251L59.9473 69.33V96Z" fill="#EDF1F9"/>
<path d="M59.9473 96L80.7069 89.4951V62.8251L59.9473 69.33V96Z" fill="#DAE1ED"/>
<path opacity="0.09" d="M55.2438 91.2965L39.1877 89.4951V62.8251L59.9473 69.33L55.2438 91.2965Z" fill="url(#paint2_linear_3715_26060)"/>
<path opacity="0.2" d="M64.6508 86.593L80.7069 89.4951V62.8251L59.9473 69.33L64.6508 86.593Z" fill="url(#paint3_linear_3715_26060)"/>
<path d="M59.947 56.2702L50.1865 48.9648L29.0801 56.0701L39.1874 62.7251L59.947 56.2702Z" fill="#DAE1ED"/>
<path d="M59.9473 56.2702L69.7077 48.9647L90.8141 56.07L80.7069 62.725L59.9473 56.2702Z" fill="#DAE1ED"/>
<path d="M39.1874 62.8251L59.947 69.33L49.5919 75.935L29.0801 69.1299L39.1874 62.8251Z" fill="#EFF4FD"/>
<path d="M80.7069 62.8251L59.9473 69.33L70.3023 75.935L90.8141 69.1299L80.7069 62.8251Z" fill="#EDF1F9"/>
<path d="M65.7389 30.6661C68.6472 38.5589 69.5141 40.3126 69.7986 48.0899C69.6892 49.8651 69.6213 51.7956 68.7844 53.35C67.6666 55.7279 64.9326 57.3747 62.3496 57.4014C59.6887 57.4489 57.0799 55.8197 55.9057 53.3073C55.0796 51.7826 55.1059 49.697 56.2391 48.3127C57.471 46.9851 59.6383 46.654 61.1973 47.4836C62.9123 48.2714 63.9359 49.9095 64.315 51.6371C64.6942 53.3646 64.5276 55.2384 64.0648 56.942C63.0969 61.0855 62.2952 61.286 59.9215 68.3011" stroke="#ABB5CC" stroke-width="1.9598" stroke-miterlimit="10" stroke-dasharray="3.92 3.92"/>
<path d="M69.279 26.4884C69.2722 27.649 68.1922 28.3597 66.8226 27.9891C65.3805 27.7433 64.3599 27.4899 64.2942 26.4541C64.3273 25.3918 65.4863 24.976 66.8428 24.5074C68.4694 23.861 69.187 25.3543 69.279 26.4884Z" fill="#DAE2EB"/>
<path d="M59.96 30.0374C60.6908 30.7897 62.2317 31.0091 62.9825 29.8599C63.8058 28.586 64.5106 27.6598 63.7534 26.8092C63.0226 26.0568 62.3113 26.5634 60.6848 27.2097C59.3808 27.8749 59.1041 29.2132 59.96 30.0374Z" fill="#DAE2EB"/>
<path d="M63.3319 25.2367C63.9971 24.9532 64.7938 25.1612 65.1493 25.6981C65.3008 25.8682 65.4785 26.1366 65.5312 26.3332C66.0973 27.6564 65.9193 28.9681 65.1554 29.2781C64.319 29.7128 63.1668 28.968 62.7258 27.7166C62.6205 27.3234 62.5678 27.1269 62.4888 26.832C62.4033 26.1175 62.6668 25.5202 63.3319 25.2367C63.4307 25.2103 63.3319 25.2367 63.3319 25.2367Z" fill="#989FB0"/>
<path d="M32.7597 46.5366H31.4721V45.249H30.3684V46.5366H29.0808V47.6771H30.3684V48.9647H31.4721V47.6771H32.7597V46.5366Z" fill="url(#paint4_linear_3715_26060)"/>
<path d="M35.5873 78.8423H34.2997V77.5547H33.1961V78.8423H31.9084V79.9827H33.1961V81.2704H34.2997V79.9827H35.5873V78.8423Z" fill="url(#paint5_linear_3715_26060)"/>
<path d="M91.8762 78.9153L90.3008 78.1198L91.0962 76.5444L89.7458 75.8627L88.9504 77.4381L87.375 76.6427L86.6705 78.038L88.2459 78.8334L87.4505 80.4089L88.8009 81.0906L89.5963 79.5152L91.1717 80.3106L91.8762 78.9153Z" fill="url(#paint6_linear_3715_26060)"/>
<defs>
<linearGradient id="paint0_linear_3715_26060" x1="53.394" y1="58.2018" x2="50.5625" y2="69.9898" gradientUnits="userSpaceOnUse">
<stop offset="0.00289017" stop-color="#606673" stop-opacity="0"/>
<stop offset="1" stop-color="#373C47"/>
</linearGradient>
<linearGradient id="paint1_linear_3715_26060" x1="53.394" y1="58.2018" x2="50.5625" y2="69.9898" gradientUnits="userSpaceOnUse">
<stop offset="0.00289017" stop-color="#606673" stop-opacity="0"/>
<stop offset="1" stop-color="#373C47"/>
</linearGradient>
<linearGradient id="paint2_linear_3715_26060" x1="43.8419" y1="81.0779" x2="48.8292" y2="66.992" gradientUnits="userSpaceOnUse">
<stop offset="0.00289017" stop-color="#6C80AA" stop-opacity="0"/>
<stop offset="1" stop-color="#5D6A86"/>
</linearGradient>
<linearGradient id="paint3_linear_3715_26060" x1="71.1509" y1="84.9257" x2="71.5432" y2="67.0508" gradientUnits="userSpaceOnUse">
<stop offset="0.00289017" stop-color="#314F91" stop-opacity="0"/>
<stop offset="1" stop-color="#324264"/>
</linearGradient>
<linearGradient id="paint4_linear_3715_26060" x1="30.9206" y1="45.3781" x2="30.9206" y2="47.4637" gradientUnits="userSpaceOnUse">
<stop stop-color="#B0BACC"/>
<stop offset="1" stop-color="#969EAE"/>
</linearGradient>
<linearGradient id="paint5_linear_3715_26060" x1="33.7482" y1="77.6837" x2="33.7482" y2="79.7693" gradientUnits="userSpaceOnUse">
<stop stop-color="#B0BACC"/>
<stop offset="1" stop-color="#969EAE"/>
</linearGradient>
<linearGradient id="paint6_linear_3715_26060" x1="90.3416" y1="76.3617" x2="89.0533" y2="78.9134" gradientUnits="userSpaceOnUse">
<stop stop-color="#B0BACC"/>
<stop offset="1" stop-color="#969EAE"/>
</linearGradient>
</defs>
</svg>
