<svg width="14" height="14" viewBox="0 0 14 14" fill="none" xmlns="http://www.w3.org/2000/svg">
<path d="M6.33337 0.333313C9.64537 0.333313 12.3334 3.02131 12.3334 6.33331C12.3334 9.64531 9.64537 12.3333 6.33337 12.3333C3.02137 12.3333 0.333374 9.64531 0.333374 6.33331C0.333374 3.02131 3.02137 0.333313 6.33337 0.333313ZM6.33337 11C8.91137 11 11 8.91131 11 6.33331C11 3.75465 8.91137 1.66665 6.33337 1.66665C3.75471 1.66665 1.66671 3.75465 1.66671 6.33331C1.66671 8.91131 3.75471 11 6.33337 11ZM11.99 11.0473L13.876 12.9326L12.9327 13.876L11.0474 11.99L11.99 11.0473Z" fill="#172B4D"/>
</svg>
