<svg width="20" height="20" viewBox="0 0 20 20" fill="none" xmlns="http://www.w3.org/2000/svg">
<g clip-path="url(#clip0_9134_39181)">
<path d="M5.83335 3.33317V1.6665H14.1667V3.33317H18.3334V4.99984H16.6667V17.4998C16.6667 17.7209 16.5789 17.9328 16.4226 18.0891C16.2663 18.2454 16.0544 18.3332 15.8334 18.3332H4.16669C3.94567 18.3332 3.73371 18.2454 3.57743 18.0891C3.42115 17.9328 3.33335 17.7209 3.33335 17.4998V4.99984H1.66669V3.33317H5.83335ZM5.00002 4.99984V16.6665H15V4.99984H5.00002ZM7.50002 7.49984H9.16669V14.1665H7.50002V7.49984ZM10.8334 7.49984H12.5V14.1665H10.8334V7.49984Z" fill="#455570"/>
</g>
<defs>
<clipPath id="clip0_9134_39181">
<rect width="20" height="20" fill="white"/>
</clipPath>
</defs>
</svg>
