<svg width="14" height="15" viewBox="0 0 14 15" fill="none" xmlns="http://www.w3.org/2000/svg">
<path fill-rule="evenodd" clip-rule="evenodd" d="M4.5318 5.58325H9.46821C10.8434 5.58325 11.9583 6.67362 11.9583 8.01847V10.8983C11.9583 12.2431 10.8434 13.3335 9.46821 13.3335H4.5318C3.15663 13.3335 2.04167 12.2431 2.04167 10.8983V8.01847C2.04167 6.67362 3.15663 5.58325 4.5318 5.58325ZM6.99704 10.609C7.28749 10.609 7.51866 10.383 7.51866 10.0989V8.81204C7.51866 8.5338 7.28749 8.30773 6.99704 8.30773C6.71252 8.30773 6.48135 8.5338 6.48135 8.81204V10.0989C6.48135 10.383 6.71252 10.609 6.99704 10.609Z" fill="#696A6B"/>
<path 
d="M10.2217 4.81439V5.67231C10.0142 5.61434 9.79488 5.58536 9.56963 5.58536H9.18435V4.81439C9.18435 3.63765 8.20631 2.68118 7.00303 2.68118C5.79976 2.68118 4.82172 3.63185 4.8158 4.80279V5.58536H4.43644C4.20527 5.58536 3.98595 5.61434 3.77849 5.6781V4.81439C3.78442 3.07536 5.22479 1.66675 6.99118 1.66675C8.78128 1.66675 10.2217 3.07536 10.2217 4.81439Z" 
fill="#696A6B"/>
</svg>
