<svg width="16" height="16" viewBox="0 0 16 16" fill="none" xmlns="http://www.w3.org/2000/svg">
<g clip-path="url(#clip0_9101_115415)">
<path d="M13.3333 2L14.6667 4.66667V13.3333C14.6667 13.5101 14.5964 13.6797 14.4714 13.8047C14.3464 13.9298 14.1768 14 14 14H2.00001C1.8232 14 1.65363 13.9298 1.52861 13.8047C1.40358 13.6797 1.33334 13.5101 1.33334 13.3333V4.66933L2.66668 2H13.3333ZM13.3333 6H2.66668V12.6667H13.3333V6ZM8.00001 6.66667L10.6667 9.33333H8.66668V12H7.33334V9.33333H5.33334L8.00001 6.66667ZM12.5093 3.33333H3.49068L2.82468 4.66667H13.176L12.5093 3.33333Z" fill="#455570"/>
</g>
<defs>
<clipPath id="clip0_9101_115415">
<rect width="16" height="16" fill="white"/>
</clipPath>
</defs>
</svg>
