<svg width="60" height="60" viewBox="0 0 60 60" fill="none" xmlns="http://www.w3.org/2000/svg">
<g clip-path="url(#clip0_7660_451459)">
<path d="M24.8849 5.5248C28.2572 4.81764 31.7394 4.81594 35.1124 5.5198C35.3371 7.00302 35.8932 8.41653 36.7393 9.65525C37.5855 10.894 38.6999 11.9261 39.9999 12.6748C41.2988 13.4261 42.7503 13.875 44.2466 13.9879C45.7429 14.1009 47.2454 13.8751 48.6424 13.3273C50.9381 15.8975 52.6771 18.9149 53.7499 22.1898C52.5782 23.1263 51.6327 24.3147 50.9835 25.6668C50.3342 27.0189 49.998 28.4999 49.9999 29.9998C49.9999 33.1598 51.4649 35.9773 53.7549 37.8098C52.6757 41.082 50.9346 44.0971 48.6399 46.6673C47.2432 46.1199 45.7412 45.8943 44.2454 46.0073C42.7496 46.1202 41.2985 46.5689 39.9999 47.3198C38.701 48.0683 37.5874 49.0997 36.7417 50.3375C35.896 51.5753 35.34 52.9877 35.1149 54.4698C31.7429 55.1786 28.2607 55.182 24.8874 54.4798C24.6637 52.9953 24.1081 51.5803 23.2619 50.3402C22.4157 49.1001 21.3007 48.0668 19.9999 47.3173C18.7008 46.5664 17.2491 46.118 15.7528 46.0055C14.2566 45.8929 12.7542 46.1191 11.3574 46.6673C9.06137 44.0964 7.32239 41.0781 6.24987 37.8023C7.42086 36.8664 8.36602 35.6788 9.01521 34.3276C9.6644 32.9764 10.0009 31.4963 9.99987 29.9973C10.0011 28.497 9.66414 27.0157 9.01404 25.6636C8.36394 24.3115 7.41743 23.1233 6.24487 22.1873C7.32404 18.9151 9.06517 15.9001 11.3599 13.3298C12.7565 13.8772 14.2585 14.1028 15.7544 13.9898C17.2502 13.8769 18.7013 13.4282 19.9999 12.6773C21.2987 11.9288 22.4123 10.8974 23.258 9.65957C24.1037 8.42178 24.6597 7.00941 24.8849 5.5273V5.5248ZM29.9999 37.4998C31.989 37.4998 33.8967 36.7096 35.3032 35.3031C36.7097 33.8966 37.4999 31.9889 37.4999 29.9998C37.4999 28.0107 36.7097 26.103 35.3032 24.6965C33.8967 23.29 31.989 22.4998 29.9999 22.4998C28.0107 22.4998 26.1031 23.29 24.6966 24.6965C23.29 26.103 22.4999 28.0107 22.4999 29.9998C22.4999 31.9889 23.29 33.8966 24.6966 35.3031C26.1031 36.7096 28.0107 37.4998 29.9999 37.4998Z" fill="#1976D2"/>
</g>
<defs>
<clipPath id="clip0_7660_451459">
<rect width="60" height="60" fill="white"/>
</clipPath>
</defs>
</svg>
