<svg width="74" height="84" viewBox="0 0 74 84" fill="none" xmlns="http://www.w3.org/2000/svg">
<path fill-rule="evenodd" clip-rule="evenodd" d="M0.137999 62.496C8.946 75.636 22.17 84 36.96 84C51.744 84 64.974 75.642 73.776 62.496C63.7904 53.1636 50.6277 47.9809 36.96 48C23.2903 47.9793 10.1251 53.1622 0.137999 62.496ZM36 36C40.7739 36 45.3523 34.1036 48.7279 30.7279C52.1036 27.3523 54 22.7739 54 18C54 13.2261 52.1036 8.64773 48.7279 5.27208C45.3523 1.89643 40.7739 0 36 0C31.2261 0 26.6477 1.89643 23.2721 5.27208C19.8964 8.64773 18 13.2261 18 18C18 22.7739 19.8964 27.3523 23.2721 30.7279C26.6477 34.1036 31.2261 36 36 36Z" fill="#B9BFC9"/>
</svg>
